<?xml version="1.0" encoding="UTF-8"?>
<svg version="1.1" xmlns="http://www.w3.org/2000/svg" width="100" height="100">
<path d="M0 0 C3.96 0 7.92 0 12 0 C12.495 9.405 12.495 9.405 13 19 C18.445 11.575 18.445 11.575 24 4 C28.77379752 5.19344938 30.38574709 6.79645765 34 10 C32.55797524 14.15151338 30.4989562 17.29978445 27.875 20.8125 C27.15054688 21.78832031 26.42609375 22.76414062 25.6796875 23.76953125 C25.12539062 24.50558594 24.57109375 25.24164063 24 26 C25.051875 25.70996094 25.051875 25.70996094 26.125 25.4140625 C31.73492134 23.874383 37.35010447 22.38582343 43 21 C45.04519535 25.34604012 46.20161508 28.13603617 46 33 C43.56427941 33.83887056 41.12666783 34.67126529 38.6875 35.5 C37.99720703 35.73847656 37.30691406 35.97695313 36.59570312 36.22265625 C33.61068511 37.23208263 31.17341086 38 28 38 C28 38.66 28 39.32 28 40 C28.61746094 40.10957031 29.23492187 40.21914063 29.87109375 40.33203125 C35.77712501 41.4377266 41.35197559 42.95361435 47 45 C46.69106068 46.6256807 46.3777305 48.25052748 46.0625 49.875 C45.88847656 50.77992187 45.71445313 51.68484375 45.53515625 52.6171875 C45 55 45 55 44 57 C43.29875 56.80664062 42.5975 56.61328125 41.875 56.4140625 C40.92625 56.15367188 39.9775 55.89328125 39 55.625 C38.071875 55.36976562 37.14375 55.11453125 36.1875 54.8515625 C32.46821127 53.85792899 28.73665834 52.92611144 25 52 C25.33845947 52.43868408 25.67691895 52.87736816 26.02563477 53.3293457 C27.5487098 55.3157255 29.05566027 57.3137808 30.5625 59.3125 C31.09552734 60.00279297 31.62855469 60.69308594 32.17773438 61.40429688 C32.67724609 62.07138672 33.17675781 62.73847656 33.69140625 63.42578125 C34.15748291 64.03848877 34.62355957 64.65119629 35.10375977 65.2824707 C35.39951904 65.84925537 35.69527832 66.41604004 36 67 C34.88333826 70.34998521 34.25305075 70.79340222 31.4375 72.6875 C30.79683594 73.12449219 30.15617187 73.56148438 29.49609375 74.01171875 C29.00238281 74.33785156 28.50867188 74.66398437 28 75 C23.60886571 73.48928866 21.68072335 70.07891637 19.25 66.375 C17.8475 64.27125 16.445 62.1675 15 60 C14.67 66.6 14.34 73.2 14 80 C10.04 80 6.08 80 2 80 C1.67 73.73 1.34 67.46 1 61 C-2.63 65.95 -6.26 70.9 -10 76 C-14.77379752 74.80655062 -16.38574709 73.20354235 -20 70 C-18.55797524 65.84848662 -16.4989562 62.70021555 -13.875 59.1875 C-13.15054687 58.21167969 -12.42609375 57.23585937 -11.6796875 56.23046875 C-11.12539063 55.49441406 -10.57109375 54.75835937 -10 54 C-10.70125 54.19335938 -11.4025 54.38671875 -12.125 54.5859375 C-17.73492134 56.125617 -23.35010447 57.61417657 -29 59 C-31.04519535 54.65395988 -32.20161508 51.86396383 -32 47 C-29.56427941 46.16112944 -27.12666783 45.32873471 -24.6875 44.5 C-23.99720703 44.26152344 -23.30691406 44.02304687 -22.59570312 43.77734375 C-19.61068511 42.76791737 -17.17341086 42 -14 42 C-14 41.34 -14 40.68 -14 40 C-14.61746094 39.89042969 -15.23492188 39.78085937 -15.87109375 39.66796875 C-21.77712501 38.5622734 -27.35197559 37.04638565 -33 35 C-32.69106068 33.3743193 -32.3777305 31.74947252 -32.0625 30.125 C-31.88847656 29.22007813 -31.71445312 28.31515625 -31.53515625 27.3828125 C-31 25 -31 25 -30 23 C-28.14545138 23.45678538 -26.29138051 23.9155106 -24.4375 24.375 C-22.88869141 24.75785156 -22.88869141 24.75785156 -21.30859375 25.1484375 C-17.85167532 26.03817566 -14.42809877 27.00572167 -11 28 C-11.50768921 27.34197388 -11.50768921 27.34197388 -12.02563477 26.6706543 C-13.5487098 24.6842745 -15.05566027 22.6862192 -16.5625 20.6875 C-17.36204102 19.65206055 -17.36204102 19.65206055 -18.17773438 18.59570312 C-18.67724609 17.92861328 -19.17675781 17.26152344 -19.69140625 16.57421875 C-20.15748291 15.96151123 -20.62355957 15.34880371 -21.10375977 14.7175293 C-21.54739868 13.86735229 -21.54739868 13.86735229 -22 13 C-20.88333826 9.65001479 -20.25305075 9.20659778 -17.4375 7.3125 C-16.79683594 6.87550781 -16.15617187 6.43851563 -15.49609375 5.98828125 C-15.00238281 5.66214844 -14.50867188 5.33601562 -14 5 C-9.60886571 6.51071134 -7.68072335 9.92108363 -5.25 13.625 C-3.14625 16.780625 -3.14625 16.780625 -1 20 C-0.67 13.4 -0.34 6.8 0 0 Z M1 26 C0.67 27.98 0.34 29.96 0 32 C-1.65 32 -3.3 32 -5 32 C-4.34 34.31 -3.68 36.62 -3 39 C-4.65 39.33 -6.3 39.66 -8 40 C-7.54625 40.45375 -7.0925 40.9075 -6.625 41.375 C-5.41666667 42.58333333 -4.20833333 43.79166667 -3 45 C-3.99 47.475 -3.99 47.475 -5 50 C-1.535 49.505 -1.535 49.505 2 49 C2.33 50.65 2.66 52.3 3 54 C4.32 53.01 5.64 52.02 7 51 C9 52 11 53 13 54 C13.33 52.02 13.66 50.04 14 48 C15.65 48 17.3 48 19 48 C18.34 45.69 17.68 43.38 17 41 C18.65 40.67 20.3 40.34 22 40 C21.54625 39.54625 21.0925 39.0925 20.625 38.625 C19.41666667 37.41666667 18.20833333 36.20833333 17 35 C17.66 33.35 18.32 31.7 19 30 C16.69 30.33 14.38 30.66 12 31 C11.67 29.35 11.34 27.7 11 26 C9.68 26.99 8.36 27.98 7 29 C5 28 3 27 1 26 Z " fill="#00E4FE" transform="translate(43,10)"/>
<path d="M0 0 C3.96 0 7.92 0 12 0 C12.33 6.27 12.66 12.54 13 19 C16.63 14.05 20.26 9.1 24 4 C28.77379752 5.19344938 30.38574709 6.79645765 34 10 C32.55797524 14.15151338 30.4989562 17.29978445 27.875 20.8125 C27.15054688 21.78832031 26.42609375 22.76414062 25.6796875 23.76953125 C25.12539062 24.50558594 24.57109375 25.24164063 24 26 C24.70125 25.80664062 25.4025 25.61328125 26.125 25.4140625 C31.73492134 23.874383 37.35010447 22.38582343 43 21 C45.04519535 25.34604012 46.20161508 28.13603617 46 33 C43.14996588 34.01334547 40.29591336 35.01080629 37.4375 36 C36.63763672 36.28617188 35.83777344 36.57234375 35.01367188 36.8671875 C30.19764061 38.51839822 26.1622365 39.46929423 21 39 C18.0625 37.5 18.0625 37.5 16 36 C16.66 34.35 17.32 32.7 18 31 C16.02 31 14.04 31 12 31 C11.34 29.68 10.68 28.36 10 27 C9.01 27.99 8.02 28.98 7 30 C3.60267295 28.5942095 1.91060797 27.1452949 0 24 C-0.34057617 21.34277344 -0.34057617 21.34277344 -0.29296875 18.359375 C-0.28330078 17.28945313 -0.27363281 16.21953125 -0.26367188 15.1171875 C-0.23853516 14.00601562 -0.21339844 12.89484375 -0.1875 11.75 C-0.17396484 10.62335937 -0.16042969 9.49671875 -0.14648438 8.3359375 C-0.11116001 5.55708719 -0.05735401 2.77848293 0 0 Z " fill="#F40057" transform="translate(43,10)"/>
<path d="M0 0 C4.56510713 1.54298493 6.5756237 5.14433456 9.1875 8.9375 C9.86329102 9.88786133 9.86329102 9.88786133 10.55273438 10.85742188 C14.62297728 16.66072173 15.11238411 20.14456949 15 27 C12.50907189 28.24546405 11.58919267 27.7767578 9 27 C9.33 27.598125 9.66 28.19625 10 28.8125 C11 31 11 31 11 34 C5.69149633 36.91111492 0.61988729 36.0025405 -4.97460938 34.453125 C-9.68030582 33.06135905 -14.34376602 31.54826921 -19 30 C-18.69106068 28.3743193 -18.3777305 26.74947252 -18.0625 25.125 C-17.88847656 24.22007813 -17.71445312 23.31515625 -17.53515625 22.3828125 C-17 20 -17 20 -16 18 C-14.14545138 18.45678538 -12.29138051 18.9155106 -10.4375 19.375 C-8.88869141 19.75785156 -8.88869141 19.75785156 -7.30859375 20.1484375 C-3.85167532 21.03817566 -0.42809877 22.00572167 3 23 C2.49231079 22.34197388 2.49231079 22.34197388 1.97436523 21.6706543 C0.4512902 19.6842745 -1.05566027 17.6862192 -2.5625 15.6875 C-3.09552734 14.99720703 -3.62855469 14.30691406 -4.17773438 13.59570312 C-4.67724609 12.92861328 -5.17675781 12.26152344 -5.69140625 11.57421875 C-6.15748291 10.96151123 -6.62355957 10.34880371 -7.10375977 9.7175293 C-7.54739868 8.86735229 -7.54739868 8.86735229 -8 8 C-6.88333826 4.65001479 -6.25305075 4.20659778 -3.4375 2.3125 C-2.47650391 1.65701172 -2.47650391 1.65701172 -1.49609375 0.98828125 C-1.00238281 0.66214844 -0.50867188 0.33601562 0 0 Z " fill="#27B6F6" transform="translate(29,15)"/>
<path d="M0 0 C1.0209375 0.7425 1.0209375 0.7425 2.0625 1.5 C1.4025 3.15 0.7425 4.8 0.0625 6.5 C2.0425 6.5 4.0225 6.5 6.0625 6.5 C7.63950468 9.65400937 7.39446254 12.00546958 7.0625 15.5 C5.76432272 18.14248989 4.0622799 20.37614998 2.25 22.6875 C1.79818359 23.29013672 1.34636719 23.89277344 0.88085938 24.51367188 C-0.37761167 26.1873465 -1.65513955 27.84460846 -2.9375 29.5 C-3.93921517 30.83204523 -4.94015273 32.16468123 -5.9375 33.5 C-10.31609255 32.99477778 -12.75401224 30.32172778 -15.9375 27.5 C-14.49547524 23.34848662 -12.4364562 20.20021555 -9.8125 16.6875 C-9.08804687 15.71167969 -8.36359375 14.73585938 -7.6171875 13.73046875 C-7.06289063 12.99441406 -6.50859375 12.25835937 -5.9375 11.5 C-6.63875 11.69335938 -7.34 11.88671875 -8.0625 12.0859375 C-13.67242134 13.625617 -19.28760447 15.11417657 -24.9375 16.5 C-26.98269535 12.15395988 -28.13911508 9.36396383 -27.9375 4.5 C-25.08746588 3.48665453 -22.23341336 2.48919371 -19.375 1.5 C-18.57513672 1.21382812 -17.77527344 0.92765625 -16.95117188 0.6328125 C-11.09589308 -1.37471166 -5.80944735 -2.96652631 0 0 Z " fill="#F40057" transform="translate(38.9375,52.5)"/>
<path d="M0 0 C4.56510713 1.54298493 6.5756237 5.14433456 9.1875 8.9375 C9.86329102 9.88786133 9.86329102 9.88786133 10.55273438 10.85742188 C14.62297728 16.66072173 15.11238411 20.14456949 15 27 C12.37203582 28.31398209 10.66608357 27.82935532 7.92578125 26.97265625 C3.99488898 24.98727658 1.60283545 21.45332335 -1 18 C-2.00546875 16.69095703 -2.00546875 16.69095703 -3.03125 15.35546875 C-6.74797688 10.31871387 -6.74797688 10.31871387 -8 8 C-6.88333826 4.65001479 -6.25305075 4.20659778 -3.4375 2.3125 C-2.79683594 1.87550781 -2.15617187 1.43851563 -1.49609375 0.98828125 C-1.00238281 0.66214844 -0.50867188 0.33601562 0 0 Z " fill="#00E5FE" transform="translate(29,15)"/>
<path d="M0 0 C1.0209375 0.7425 1.0209375 0.7425 2.0625 1.5 C-0.13717924 6.44927829 -1.81927029 9.20700925 -6.89990234 11.3137207 C-9.25267863 12.17447392 -11.61900676 12.97083462 -14 13.75 C-14.81533203 14.03101562 -15.63066406 14.31203125 -16.47070312 14.6015625 C-17.25509766 14.86195312 -18.03949219 15.12234375 -18.84765625 15.390625 C-19.91705444 15.74688965 -19.91705444 15.74688965 -21.00805664 16.11035156 C-22.9375 16.5 -22.9375 16.5 -25.9375 15.5 C-27.58292378 11.68954492 -28.0282652 8.60537998 -27.9375 4.5 C-25.08746588 3.48665453 -22.23341336 2.48919371 -19.375 1.5 C-18.57513672 1.21382812 -17.77527344 0.92765625 -16.95117188 0.6328125 C-11.09589308 -1.37471166 -5.80944735 -2.96652631 0 0 Z " fill="#D500F9" transform="translate(38.9375,52.5)"/>
<path d="M0 0 C1.64542378 3.81045508 2.0907652 6.89462002 2 11 C-0.85003412 12.01334547 -3.70408664 13.01080629 -6.5625 14 C-7.36236328 14.28617188 -8.16222656 14.57234375 -8.98632812 14.8671875 C-13.80235939 16.51839822 -17.8377635 17.46929423 -23 17 C-25.9375 15.5 -25.9375 15.5 -28 14 C-25.80032076 9.05072171 -24.11822971 6.29299075 -19.03759766 4.1862793 C-16.68482137 3.32552608 -14.31849324 2.52916538 -11.9375 1.75 C-11.12216797 1.46898437 -10.30683594 1.18796875 -9.46679688 0.8984375 C-8.29020508 0.50785156 -8.29020508 0.50785156 -7.08984375 0.109375 C-6.37691162 -0.12813477 -5.66397949 -0.36564453 -4.92944336 -0.61035156 C-3 -1 -3 -1 0 0 Z " fill="#D400F8" transform="translate(87,32)"/>
<path d="M0 0 C3.96 0 7.92 0 12 0 C12.05402584 3.56270373 12.0936875 7.12458523 12.125 10.6875 C12.14175781 11.69490234 12.15851562 12.70230469 12.17578125 13.74023438 C12.18222656 14.71669922 12.18867187 15.69316406 12.1953125 16.69921875 C12.20578613 17.59471436 12.21625977 18.49020996 12.22705078 19.4128418 C11.83367814 23.895175 10.4048833 27.05941897 7 30 C3.60267295 28.5942095 1.91060797 27.1452949 0 24 C-0.34057617 21.34277344 -0.34057617 21.34277344 -0.29296875 18.359375 C-0.28330078 17.28945313 -0.27363281 16.21953125 -0.26367188 15.1171875 C-0.23853516 14.00601562 -0.21339844 12.89484375 -0.1875 11.75 C-0.17396484 10.62335937 -0.16042969 9.49671875 -0.14648438 8.3359375 C-0.11116001 5.55708719 -0.05735401 2.77848293 0 0 Z " fill="#536D79" transform="translate(43,10)"/>
<path d="M0 0 C3.86928103 1.46765832 5.17038652 3.34109635 7 7 C7.34057617 9.67895508 7.34057617 9.67895508 7.29296875 12.51953125 C7.28330078 13.54111328 7.27363281 14.56269531 7.26367188 15.61523438 C7.23853516 16.67033203 7.21339844 17.72542969 7.1875 18.8125 C7.17396484 19.88693359 7.16042969 20.96136719 7.14648438 22.06835938 C7.11122976 24.71245541 7.05742566 27.35629256 7 30 C3.04 30 -0.92 30 -5 30 C-5.05402584 26.43729627 -5.0936875 22.87541477 -5.125 19.3125 C-5.14175781 18.30509766 -5.15851562 17.29769531 -5.17578125 16.25976562 C-5.18544922 14.79506836 -5.18544922 14.79506836 -5.1953125 13.30078125 C-5.20578613 12.40528564 -5.21625977 11.50979004 -5.22705078 10.5871582 C-4.83367814 6.104825 -3.4048833 2.94058103 0 0 Z " fill="#546D79" transform="translate(50,60)"/>
<path d="M0 0 C-0.30893932 1.6256807 -0.6222695 3.25052748 -0.9375 4.875 C-1.11152344 5.77992187 -1.28554687 6.68484375 -1.46484375 7.6171875 C-2 10 -2 10 -3 12 C-8.70746946 10.54277376 -14.36066646 8.96403489 -19.9375 7.0625 C-20.81277344 6.76472656 -21.68804687 6.46695313 -22.58984375 6.16015625 C-25.3659678 4.82383722 -27.01457182 3.34397051 -29 1 C-29.75 -1.75 -29.75 -1.75 -30 -4 C-20.93367963 -8.9718531 -9.0124116 -2.99676509 0 0 Z " fill="#28B6F6" transform="translate(90,55)"/>
</svg>
