<?xml version="1.0" encoding="UTF-8"?>
<svg version="1.1" xmlns="http://www.w3.org/2000/svg" width="100" height="100">
<path d="M0 0 C6.26767991 6.26767991 5.30321559 14.79309654 5.31689453 23.10913086 C5.08139985 39.15911066 -0.46888152 52.93869526 -11.5 64.640625 C-17.1642766 69.98628604 -25.58293214 77.87688482 -33.75 78.0625 C-46.81674077 73.7906809 -56.97865541 63.48947296 -64 52 C-64.39960937 51.35546875 -64.79921875 50.7109375 -65.2109375 50.046875 C-70.18482741 41.1462299 -71.26154998 31.27245593 -71.3125 21.25 C-71.31797852 20.47035889 -71.32345703 19.69071777 -71.32910156 18.88745117 C-71.24725827 12.21369497 -70.98410256 5.40180836 -66.625 0.125 C-51.20195094 -10.86439614 -15.94257572 -9.06403295 0 0 Z " fill="#5C4237" transform="translate(83,14)"/>
<path d="M0 0 C6.26767991 6.26767991 5.30321559 14.79309654 5.31689453 23.10913086 C5.08139985 39.15911066 -0.46888152 52.93869526 -11.5 64.640625 C-17.1642766 69.98628604 -25.58293214 77.87688482 -33.75 78.0625 C-46.81674077 73.7906809 -56.97865541 63.48947296 -64 52 C-64.39960937 51.35546875 -64.79921875 50.7109375 -65.2109375 50.046875 C-70.18482741 41.1462299 -71.26154998 31.27245593 -71.3125 21.25 C-71.31797852 20.47035889 -71.32345703 19.69071777 -71.32910156 18.88745117 C-71.24725827 12.21369497 -70.98410256 5.40180836 -66.625 0.125 C-51.20195094 -10.86439614 -15.94257572 -9.06403295 0 0 Z M-62.10961914 5.734375 C-65.50444751 9.80308316 -64.67557322 14.65521681 -64.625 19.75 C-64.61734619 20.87148438 -64.60969238 21.99296875 -64.60180664 23.1484375 C-64.20111528 38.263949 -59.37372985 49.70730625 -48.578125 60.3984375 C-44.08903468 64.60185844 -39.72343168 68.64329284 -34 71 C-22.54099939 67.4443937 -12.98340578 57.95341053 -7.3203125 47.6484375 C-6.88460937 46.77445313 -6.44890625 45.90046875 -6 45 C-5.37738281 43.78183594 -5.37738281 43.78183594 -4.7421875 42.5390625 C-1.74436095 35.39039919 -1.55490221 28.2096013 -1.4375 20.5625 C-1.41059082 19.50724121 -1.38368164 18.45198242 -1.35595703 17.36474609 C-1.37953183 12.61708679 -1.40279197 9.86589726 -4.14453125 5.890625 C-16.37072743 -2.20442144 -50.46552746 -3.83854796 -62.10961914 5.734375 Z " fill="#4DA64D" transform="translate(83,14)"/>
<path d="M0 0 C3.97940152 1.49884947 5.43463485 3.74712589 7.625 7.3125 C8.21539062 8.25738281 8.80578125 9.20226563 9.4140625 10.17578125 C13.85688847 18.08751321 14.54808321 26.99176355 12.27734375 35.8046875 C10.73570104 39.51211977 9.20890147 41.7959567 6.3125 44.625 C3.362472 47.65475849 3.2434431 49.86146731 3 54 C1.68 54 0.36 54 -1 54 C-1.061875 52.948125 -1.12375 51.89625 -1.1875 50.8125 C-2.16053031 46.24674241 -3.64102058 45.12463202 -7 42 C-10.51084578 36.81425531 -11.71972274 33.04354686 -11.625 26.8125 C-11.61879639 26.07217529 -11.61259277 25.33185059 -11.60620117 24.5690918 C-11.23162182 14.81631176 -6.59841102 6.98655285 0 0 Z " fill="#80C582" transform="translate(49,21)"/>
<path d="M0 0 C3.28195126 3.21287872 5.93876586 6.1472444 8.25 10.125 C8.75015625 10.97320312 9.2503125 11.82140625 9.765625 12.6953125 C13.34531776 19.37891607 13.08461828 28.53757049 11.31640625 35.8125 C9.23574305 40.92350671 6.48205199 43.84219064 2 47 C-0.51192491 42.18040705 -0.2564862 37.61568371 -0.1953125 32.32421875 C-0.1924826 31.3990596 -0.18965271 30.47390045 -0.18673706 29.52070618 C-0.17557392 26.57617058 -0.15047637 23.63194312 -0.125 20.6875 C-0.11496521 18.68685336 -0.10584023 16.68620194 -0.09765625 14.68554688 C-0.07564722 9.7902465 -0.04114391 4.89517543 0 0 Z " fill="#4CAD4F" transform="translate(50,21)"/>
<path d="M0 0 C0.99 0.33 1.98 0.66 3 1 C3 3.97 3 6.94 3 10 C1.68 10 0.36 10 -1 10 C-1.125 3.375 -1.125 3.375 0 0 Z " fill="#D7EBC3" transform="translate(49,65)"/>
</svg>
