<?xml version="1.0" encoding="UTF-8"?>
<svg version="1.1" xmlns="http://www.w3.org/2000/svg" width="100" height="100">
<path d="M0 0 C5 1 5 1 7 2 C7.19834763 6.46549183 7.3431785 10.92863025 7.43945312 15.3972168 C7.47959307 16.91557479 7.5341233 18.43362522 7.60351562 19.95092773 C8.16337907 32.51080554 8.16337907 32.51080554 5.359375 36.10009766 C3.25554338 37.47381666 1.40314504 38.28858537 -1 39 C-1.88042969 39.31066406 -2.76085937 39.62132812 -3.66796875 39.94140625 C-7.7840915 40.04482642 -10.50641471 38.45266729 -13.91015625 36.27734375 C-16.71841215 33.21713219 -16.96706136 31.11349252 -17.25 27 C-16.96706136 22.88650748 -16.71841215 20.78286781 -13.91015625 17.72265625 C-8.94733885 14.55093085 -6.96090801 13.8078184 -1 15 C-0.67 10.05 -0.34 5.1 0 0 Z M-7.3125 22.875 C-8.1478125 23.431875 -8.1478125 23.431875 -9 24 C-9.2502157 26.91634129 -9.2502157 26.91634129 -9 30 C-6.30486239 32.28287629 -6.30486239 32.28287629 -3.9375 31.6875 C-1.95524751 31.02860761 -1.95524751 31.02860761 0 30 C0 28.02 0 26.04 0 24 C-3.54754411 22.13150946 -3.54754411 22.13150946 -7.3125 22.875 Z " fill="#36464E" transform="translate(68,25)"/>
<path d="M0 0 C3.04493252 1.96615643 3.61211583 3.00167957 4.48046875 6.58203125 C4.98648429 15.69985852 4.98648429 15.69985852 2.0859375 19.30078125 C-0.01031745 20.67265466 -1.93718642 21.52938204 -4.3125 22.3125 C-5.281875 22.68375 -6.25125 23.055 -7.25 23.4375 C-11.97625061 23.24459181 -15.3989382 20.82587635 -19.3125 18.3125 C-19.90246621 13.16012846 -20.19645153 8.44477614 -19.3125 3.3125 C-13.68329348 -3.18521267 -7.40909089 -3.53013182 0 0 Z " fill="#4AAD4E" transform="translate(44.3125,41.6875)"/>
<path d="M0 0 C3.26703321 2.12852164 3.59843025 2.47761191 4.5 6.5 C3.6875 9.875 3.6875 9.875 1.3125 11.8125 C-1.3125 12.875 -1.3125 12.875 -3.3125 12.875 C-3.3125 10.895 -3.3125 8.915 -3.3125 6.875 C-6.69067425 6.03045644 -8.98715243 5.76655081 -12.3125 6.875 C-12.3125 8.855 -12.3125 10.835 -12.3125 12.875 C-11.61125 13.143125 -10.91 13.41125 -10.1875 13.6875 C-7.1475176 14.9431449 -4.2397226 16.37735123 -1.3125 17.875 C-2.3125 20.875 -2.3125 20.875 -4.0625 22.125 C-7.06436445 23.12562148 -8.2959918 22.90335507 -11.3125 21.875 C-12.00472656 21.64554688 -12.69695312 21.41609375 -13.41015625 21.1796875 C-16.01601805 20.01233495 -17.48103999 19.08493274 -19.3125 16.875 C-20.62591405 11.9541546 -20.67268544 7.78773727 -19.3125 2.875 C-13.44251872 -3.55664928 -7.35833263 -4.18496507 0 0 Z " fill="#36464E" transform="translate(96.3125,42.125)"/>
<path d="M0 0 C0.73863281 0.18433594 1.47726563 0.36867187 2.23828125 0.55859375 C5.00801406 1.73220935 6.24036766 2.50825786 8 5 C9.0557113 10.91256098 8.44492521 17.0491253 8 23 C3.25 21.125 3.25 21.125 1 20 C1 16.37 1 12.74 1 9 C-3.76881134 7.96546942 -3.76881134 7.96546942 -8 9 C-7.94199219 9.75925781 -7.88398437 10.51851562 -7.82421875 11.30078125 C-7.68950853 14.26825493 -7.63883847 17.04978894 -8 20 C-10.45694253 22.26297338 -11.6796254 23 -15 23 C-16.51880424 6.90067502 -16.51880424 6.90067502 -12.94921875 2.43359375 C-8.34172707 -0.39916039 -5.28351934 -1.52409212 0 0 Z " fill="#36474E" transform="translate(15,40)"/>
<path d="M0 0 C4.92513888 0.46173177 9.74506708 2.19861849 13 6 C13.69577977 10.07907531 13.4705135 13.9026116 13 18 C10.17062188 14.57857139 7.71195701 11.0856046 5.375 7.3125 C2.975354 3.4279351 2.975354 3.4279351 0 0 Z " fill="#318135" transform="translate(35,39)"/>
<path d="M0 0 C3.10509356 3.10509356 5.09366246 5.41215437 7.3125 9.0625 C7.84488281 9.91972656 8.37726562 10.77695312 8.92578125 11.66015625 C10 14 10 14 9 17 C6.03 15.35 3.06 13.7 0 12 C0 8.04 0 4.08 0 0 Z " fill="#2D7F31" transform="translate(25,48)"/>
<path d="M0 0 C1.65 0 3.3 0 5 0 C5 1.32 5 2.64 5 4 C4.01 4.33 3.02 4.66 2 5 C1.34 4.67 0.68 4.34 0 4 C0 2.68 0 1.36 0 0 Z " fill="#378D3A" transform="translate(86,50)"/>
<path d="M0 0 C1.32 1.32 2.64 2.64 4 4 C2.68 5.65 1.36 7.3 0 9 C0 6.03 0 3.06 0 0 Z " fill="#388E3C" transform="translate(25,48)"/>
<path d="M0 0 C0.33 0 0.66 0 1 0 C1 3.3 1 6.6 1 10 C0.01 9.01 -0.98 8.02 -2 7 C-1.73904456 4.32520673 -1.1995243 2.39904859 0 0 Z " fill="#378E3B" transform="translate(47,47)"/>
</svg>
