<?xml version="1.0" encoding="UTF-8"?>
<svg version="1.1" xmlns="http://www.w3.org/2000/svg" width="100" height="100">
<path d="M0 0 C10.46714266 7.1182577 18.51678291 17.1132615 21.75 29.6015625 C24.20654123 46.92895152 21.77832862 61.46874924 11.1875 75.6875 C4.31630514 84.33572802 -6.83087448 91.13061132 -17.8125 92.6875 C-35.29515717 94.09047739 -48.96214088 91.35010051 -62.84375 80.03125 C-71.77216423 71.72939115 -77.43976911 60.03940202 -78.1953125 47.8984375 C-78.76826498 31.4970905 -74.91476725 18.15125912 -63.5 5.875 C-45.95424352 -10.42305825 -20.16577813 -12.09946688 0 0 Z M-8.625 13.1875 C-11.12198169 15.59299983 -11.12198169 15.59299983 -11.375 19.25 C-11.12325897 22.68771099 -11.12325897 22.68771099 -9.0625 24.6875 C-6.87299869 25.89771767 -6.87299869 25.89771767 -4.5625 25.375 C-3.985 25.148125 -3.4075 24.92125 -2.8125 24.6875 C-3.286875 24.254375 -3.76125 23.82125 -4.25 23.375 C-5.8125 21.6875 -5.8125 21.6875 -6.8125 18.6875 C-6.1525 18.6875 -5.4925 18.6875 -4.8125 18.6875 C-3.42311923 16.72602126 -2.0864589 14.72583424 -0.8125 12.6875 C-4.20862106 11.52311564 -5.39587597 11.46530052 -8.625 13.1875 Z M0.1875 15.6875 C-1.19482443 17.31376404 -2.53187515 18.9800002 -3.8125 20.6875 C-2.8225 21.6775 -1.8325 22.6675 -0.8125 23.6875 C0.1775 23.3575 1.1675 23.0275 2.1875 22.6875 C1.5275 22.3575 0.8675 22.0275 0.1875 21.6875 C0.1875 20.3675 0.1875 19.0475 0.1875 17.6875 C0.8475 17.6875 1.5075 17.6875 2.1875 17.6875 C2.1875 17.0275 2.1875 16.3675 2.1875 15.6875 C1.5275 15.6875 0.8675 15.6875 0.1875 15.6875 Z M2.1875 17.6875 C3.1875 20.6875 3.1875 20.6875 3.1875 20.6875 Z M-21 26.6875 C-21.77601562 27.31785156 -22.55203125 27.94820312 -23.3515625 28.59765625 C-27.23311249 31.89389314 -31.04659352 35.2599019 -34.8125 38.6875 C-34.1525 40.0075 -33.4925 41.3275 -32.8125 42.6875 C-26.40625408 37.42014225 -20.62575215 31.58751711 -14.8125 25.6875 C-14.1525 25.0275 -13.4925 24.3675 -12.8125 23.6875 C-17.22336897 23.6875 -17.75655808 24.04075686 -21 26.6875 Z M-15.9453125 29.5546875 C-16.75097656 30.35777344 -17.55664062 31.16085938 -18.38671875 31.98828125 C-19.22847656 32.83777344 -20.07023437 33.68726563 -20.9375 34.5625 C-21.78699219 35.40425781 -22.63648438 36.24601562 -23.51171875 37.11328125 C-24.31480469 37.91894531 -25.11789063 38.72460938 -25.9453125 39.5546875 C-26.68668457 40.29831543 -27.42805664 41.04194336 -28.19189453 41.80810547 C-30.03018027 43.52633596 -30.03018027 43.52633596 -29.8125 45.6875 C-26.27574349 44.15897075 -23.81685254 42.0458611 -21 39.4375 C-17.00115927 35.77041494 -12.95074736 32.19601407 -8.8125 28.6875 C-9.1425 27.6975 -9.4725 26.7075 -9.8125 25.6875 C-12.85669181 25.6875 -13.82419602 27.44000561 -15.9453125 29.5546875 Z M-17.125 38.5 C-20.25670654 41.39756025 -23.33960231 44.20450189 -26.8125 46.6875 C-26.4825 47.6775 -26.1525 48.6675 -25.8125 49.6875 C-22.26286146 48.17201505 -19.91291265 46.08674001 -17.1875 43.375 C-16.41148438 42.61574219 -15.63546875 41.85648438 -14.8359375 41.07421875 C-12.79642289 38.66853646 -11.79220258 36.66347826 -10.8125 33.6875 C-13.0906966 33.6875 -15.45843397 36.94985644 -17.125 38.5 Z M-37.8125 41.6875 C-38.8025 43.1725 -38.8025 43.1725 -39.8125 44.6875 C-38.1625 44.6875 -36.5125 44.6875 -34.8125 44.6875 C-35.1425 43.6975 -35.4725 42.7075 -35.8125 41.6875 C-36.4725 41.6875 -37.1325 41.6875 -37.8125 41.6875 Z M-40.4609375 53.9453125 C-41.71352569 55.22427096 -42.95553503 56.51366428 -44.1875 57.8125 C-44.82816406 58.47121094 -45.46882813 59.12992188 -46.12890625 59.80859375 C-47.69959883 61.42617268 -49.26015097 63.05234203 -50.8125 64.6875 C-50.1525 66.0075 -49.4925 67.3275 -48.8125 68.6875 C-48.77125 68.06875 -48.73 67.45 -48.6875 66.8125 C-48.39875 66.11125 -48.11 65.41 -47.8125 64.6875 C-45.81628176 64.00959352 -43.81556387 63.34490366 -41.8125 62.6875 C-39.90221319 61.60151503 -38.02574282 60.45391959 -36.1875 59.25 C-35.26710938 58.65316406 -34.34671875 58.05632812 -33.3984375 57.44140625 C-31.14967418 55.91618763 -28.96742738 54.3416344 -26.8125 52.6875 C-27.4725 51.3675 -28.1325 50.0475 -28.8125 48.6875 C-33.73549053 48.6875 -37.01297845 50.62485325 -40.4609375 53.9453125 Z M-53.8125 67.6875 C-54.8025 69.1725 -54.8025 69.1725 -55.8125 70.6875 C-53.8325 70.6875 -51.8525 70.6875 -49.8125 70.6875 C-50.4725 69.6975 -51.1325 68.7075 -51.8125 67.6875 C-52.4725 67.6875 -53.1325 67.6875 -53.8125 67.6875 Z " fill="#F36832" transform="translate(77.8125,7.3125)"/>
</svg>
