<?xml version="1.0" encoding="UTF-8"?>
<svg version="1.1" xmlns="http://www.w3.org/2000/svg" width="160" height="160">
<path d="M0 0 C2.68860931 -0.10887507 5.37273158 -0.18770594 8.0625 -0.25 C8.81466797 -0.28351562 9.56683594 -0.31703125 10.34179688 -0.3515625 C16.07589192 -0.45085419 19.29901442 0.68130676 24 4 C32.41099642 15.44830068 32.47297619 30.89469824 30.49609375 44.45703125 C29.13821818 50.1290715 27.33219388 54.06164192 23 58 C16.77225459 61.47921925 11.18703822 61.39376533 4.16015625 61.29296875 C3.03806259 61.28872391 1.91596893 61.28447906 0.75987244 61.28010559 C-2.80616767 61.26338097 -6.37163215 61.22573922 -9.9375 61.1875 C-12.36262202 61.17244517 -14.78775294 61.15875817 -17.21289062 61.14648438 C-23.1421218 61.11349778 -29.07101976 61.06336008 -35 61 C-35 62.98 -35 64.96 -35 67 C-25.1 67 -15.2 67 -5 67 C-4.54318663 86.49070369 -4.54318663 86.49070369 -8 92 C-16.19595109 98.60898997 -29.02226786 98.6518785 -39 98 C-46.41845811 97.08044182 -51.47480272 95.63997898 -56.75 90.125 C-61.33837429 83.75225793 -60.22001675 75.89852635 -60.24023438 68.33544922 C-60.24993986 66.13861212 -60.28100021 63.94271179 -60.3125 61.74609375 C-60.31903153 60.33333883 -60.32428142 58.92057729 -60.328125 57.5078125 C-60.3374707 56.23566895 -60.34681641 54.96352539 -60.35644531 53.65283203 C-59.84370164 48.39826298 -58.49388878 44.45457592 -54.625 40.6875 C-49.61345062 37.46578968 -45.74986953 36.75467005 -39.79296875 36.7265625 C-38.38736192 36.70626709 -36.98176302 36.68541619 -35.57617188 36.6640625 C-33.3842903 36.64153898 -31.19272416 36.625014 -29.00073242 36.61914062 C-17.22201507 36.96704364 -17.22201507 36.96704364 -7 32 C-0.89377252 25.65332353 -0.10345291 19.47553267 -0.125 10.9375 C-0.104375 9.88111328 -0.08375 8.82472656 -0.0625 7.73632812 C-0.01581084 5.15675216 0.00447956 2.57990801 0 0 Z M-22 77 C-21.71016731 80.30683466 -21.71016731 80.30683466 -20 83 C-17.54190002 83.2500773 -17.54190002 83.2500773 -15 83 C-14.34 82.34 -13.68 81.68 -13 81 C-13.28983269 77.69316534 -13.28983269 77.69316534 -15 75 C-18.961168 74.60909667 -18.961168 74.60909667 -22 77 Z " fill="#FFC106" transform="translate(111,46)"/>
<path d="M0 0 C4.05814605 5.75994923 5.39757078 10.66978681 5.3359375 17.66015625 C5.33880768 18.3906871 5.34167786 19.12121796 5.34463501 19.87388611 C5.34666344 21.40754987 5.34121965 22.94124023 5.32861328 24.47485352 C5.31251723 26.80999979 5.32851413 29.14342182 5.34765625 31.47851562 C5.34567405 32.97656628 5.34183086 34.47461587 5.3359375 35.97265625 C5.34201019 36.66343765 5.34808289 37.35421906 5.3543396 38.06593323 C5.28796481 42.68202064 4.34087196 45.82039649 1.9375 49.75 C-3.32789925 54.73827297 -7.92964866 55.98675855 -15.0859375 56.05859375 C-16.45052507 56.08375587 -17.8151083 56.10915387 -19.1796875 56.13476562 C-21.30793101 56.16343956 -23.43609938 56.18748762 -25.56445312 56.20629883 C-27.63450295 56.22812164 -29.70369163 56.26756672 -31.7734375 56.30859375 C-33.61881104 56.32877563 -33.61881104 56.32877563 -35.50146484 56.34936523 C-42.10065681 57.09180826 -46.74749843 59.59597035 -51.0625 64.75 C-54.6852458 70.32141102 -54.60465 75.68807123 -54.75 82.125 C-54.80124023 83.65833984 -54.80124023 83.65833984 -54.85351562 85.22265625 C-54.93558588 87.73166114 -55.00486876 90.24033465 -55.0625 92.75 C-72.25872369 93.50129133 -72.25872369 93.50129133 -77.51953125 90.203125 C-84.07401889 84.03029107 -86.00529478 74.78182129 -86.36328125 66.1015625 C-86.38233731 64.52615207 -86.38596552 62.95048752 -86.375 61.375 C-86.37081055 60.54790527 -86.36662109 59.72081055 -86.36230469 58.86865234 C-86.22178282 51.23412891 -85.22210444 44.50931144 -81.375 37.8125 C-74.43985474 31.62710017 -68.03960071 31.18805608 -59.125 31.359375 C-58.00432129 31.36503479 -56.88364258 31.37069458 -55.72900391 31.37652588 C-52.17305583 31.39879708 -48.61814011 31.44897823 -45.0625 31.5 C-42.6419417 31.52007687 -40.22136751 31.53832555 -37.80078125 31.5546875 C-31.88767257 31.59863153 -25.97516007 31.66545126 -20.0625 31.75 C-20.0625 29.77 -20.0625 27.79 -20.0625 25.75 C-29.9625 25.75 -39.8625 25.75 -50.0625 25.75 C-50.51931337 6.25929631 -50.51931337 6.25929631 -47.0625 0.75 C-35.80718547 -8.32597666 -11.35736774 -8.34418855 0 0 Z M-42.0625 11.75 C-41.77266731 15.05683466 -41.77266731 15.05683466 -40.0625 17.75 C-37.60440002 18.0000773 -37.60440002 18.0000773 -35.0625 17.75 C-34.4025 17.09 -33.7425 16.43 -33.0625 15.75 C-33.35233269 12.44316534 -33.35233269 12.44316534 -35.0625 9.75 C-39.023668 9.35909667 -39.023668 9.35909667 -42.0625 11.75 Z " fill="#0176BD" transform="translate(101.0625,21.25)"/>
</svg>
